<svg xmlns="http://www.w3.org/2000/svg" width="1440" height="900" viewBox="0 0 1440 900">
  <defs>
    <pattern id="dot" width="22" height="22" patternUnits="userSpaceOnUse">
      <circle cx="3" cy="3" r="1.4" fill="#d7deea"/>
    </pattern>
    <filter id="shadow" x="-20%" y="-20%" width="140%" height="140%">
      <feDropShadow dx="0" dy="14" stdDeviation="18" flood-color="#0f172a" flood-opacity=".12"/>
    </filter>
    <style>
      .bg{fill:#f5f7fb}.panel{fill:#fff;stroke:#dbe3ee;stroke-width:1}.soft{fill:#f8fafc}
      .ink{fill:#111827}.muted{fill:#64748b}.blue{fill:#2563eb}.blueSoft{fill:#eff6ff}
      .green{fill:#16a34a}.amber{fill:#b45309}.red{fill:#dc2626}.line{stroke:#c9d3e2;stroke-width:2;fill:none}
      .edge{stroke:#aab7c9;stroke-width:5;fill:none;stroke-linecap:round}.edgeActive{stroke:#3b82f6;stroke-width:5;fill:none;stroke-linecap:round}
      .title{font:700 24px Inter,Arial,"PingFang SC",sans-serif}.h{font:700 18px Inter,Arial,"PingFang SC",sans-serif}
      .t{font:500 14px Inter,Arial,"PingFang SC",sans-serif}.s{font:600 12px Inter,Arial,"PingFang SC",sans-serif}
      .mono{font:600 12px ui-monospace,SFMono-Regular,Menlo,monospace}.chip{fill:#f1f5f9;stroke:#dbe3ee}
    </style>
  </defs>
  <rect class="bg" width="1440" height="900"/>
  <rect x="22" y="20" width="1396" height="860" rx="22" fill="#fff" filter="url(#shadow)"/>

  <rect x="22" y="20" width="1396" height="64" rx="22" fill="#ffffff"/>
  <line x1="22" y1="84" x2="1418" y2="84" stroke="#dde5f0"/>
  <text x="48" y="59" class="title ink">HarnessOS Light Studio</text>
  <rect x="304" y="34" width="142" height="32" rx="8" class="chip"/><text x="320" y="55" class="s ink">工作空间 / Demo</text>
  <rect x="458" y="34" width="104" height="32" rx="8" class="chip"/><text x="474" y="55" class="s ink">项目: V12</text>
  <rect x="574" y="34" width="118" height="32" rx="8" class="chip"/><text x="590" y="55" class="s ink">模型: DeepSeek</text>
  <rect x="704" y="34" width="82" height="32" rx="8" fill="#ecfdf5" stroke="#bbf7d0"/><circle cx="724" cy="50" r="5" class="green"/><text x="738" y="55" class="s ink">API 在线</text>
  <rect x="798" y="34" width="92" height="32" rx="8" fill="#eff6ff" stroke="#bfdbfe"/><text x="814" y="55" class="s blue">运行中</text>
  <rect x="902" y="34" width="102" height="32" rx="8" fill="#f0fdf4" stroke="#bbf7d0"/><text x="918" y="55" class="s green">证据就绪</text>
  <rect x="1124" y="32" width="76" height="36" rx="9" class="chip"/><text x="1148" y="55" class="s ink">预览</text>
  <rect x="1210" y="32" width="96" height="36" rx="9" fill="#eff6ff" stroke="#bfdbfe"/><text x="1230" y="55" class="s blue">只读画布</text>
  <rect x="1316" y="32" width="82" height="36" rx="9" fill="#2563eb"/><text x="1339" y="55" class="s" fill="#fff">提案</text>

  <rect x="22" y="84" width="70" height="796" fill="#fbfdff"/>
  <line x1="92" y1="84" x2="92" y2="880" stroke="#dde5f0"/>
  <g transform="translate(43 126)">
    <rect x="-16" y="-16" width="38" height="38" rx="10" fill="#eff6ff" stroke="#bfdbfe"/>
    <path d="M-4 5h14M3-2v14M-6-6h18v18H-6z" stroke="#2563eb" stroke-width="2" fill="none"/>
  </g>
  <g transform="translate(43 196)"><path d="M-10 4h20M-10-7h20M-10 15h12" stroke="#64748b" stroke-width="3" fill="none"/></g>
  <g transform="translate(43 266)"><circle cx="-6" cy="-2" r="6" fill="none" stroke="#64748b" stroke-width="3"/><circle cx="8" cy="9" r="6" fill="none" stroke="#64748b" stroke-width="3"/></g>
  <g transform="translate(43 336)"><path d="M-12-9h24v18h-24zM-5 15h10" stroke="#64748b" stroke-width="3" fill="none"/></g>
  <g transform="translate(43 406)"><path d="M-12 9l8-16 8 10 8-14" stroke="#64748b" stroke-width="3" fill="none"/></g>
  <g transform="translate(43 476)"><path d="M-11-8h22v16h-22zM-4 14h8" stroke="#64748b" stroke-width="3" fill="none"/></g>

  <rect x="92" y="84" width="246" height="796" fill="#ffffff"/>
  <line x1="338" y1="84" x2="338" y2="880" stroke="#dde5f0"/>
  <text x="116" y="132" class="h ink">产品导航</text>
  <text x="116" y="158" class="t muted">一级 rail 控制领域，二级菜单列出对象</text>
  <rect x="116" y="194" width="198" height="40" rx="10" fill="#eff6ff"/><text x="146" y="220" class="t blue">工作台总览</text>
  <rect x="116" y="246" width="198" height="40" rx="10" class="soft"/><text x="146" y="272" class="t ink">智能体  12</text>
  <rect x="116" y="298" width="198" height="40" rx="10" class="soft"/><text x="146" y="324" class="t ink">工作流  8</text>
  <rect x="116" y="350" width="198" height="40" rx="10" class="soft"/><text x="146" y="376" class="t ink">技能 / MCP  26</text>
  <rect x="116" y="402" width="198" height="40" rx="10" class="soft"/><text x="146" y="428" class="t ink">证据链  34</text>
  <rect x="116" y="454" width="198" height="40" rx="10" class="soft"/><text x="146" y="480" class="t ink">运行与审计</text>
  <text x="116" y="548" class="s muted">当前工作流</text>
  <rect x="116" y="566" width="198" height="72" rx="12" class="panel"/>
  <text x="134" y="594" class="t ink">多角度讨论工作流</text>
  <text x="134" y="620" class="s muted">6 个工位 · 等待确认</text>

  <rect x="338" y="84" width="762" height="796" fill="url(#dot)"/>
  <rect x="362" y="110" width="714" height="54" rx="14" class="panel"/>
  <text x="386" y="143" class="h ink">只读画布基础</text>
  <rect x="560" y="122" width="74" height="30" rx="8" class="chip"/><text x="579" y="142" class="s ink">99%</text>
  <rect x="646" y="122" width="92" height="30" rx="8" class="chip"/><text x="662" y="142" class="s ink">自动布局</text>
  <rect x="750" y="122" width="124" height="30" rx="8" fill="#fff7ed" stroke="#fed7aa"/><text x="768" y="142" class="s amber">编辑需确认</text>
  <rect x="886" y="122" width="166" height="30" rx="8" fill="#f8fafc" stroke="#dbe3ee"/><text x="904" y="142" class="s muted">新增节点：V13 后启用</text>

  <path class="edgeActive" d="M500 320 C570 320 580 250 650 250"/>
  <path class="edge" d="M790 250 C850 250 850 196 914 196"/>
  <path class="edge" d="M790 250 C850 250 850 314 914 314"/>
  <path class="edgeActive" d="M1050 196 C1116 196 1116 254 1178 254"/>
  <path class="edgeActive" d="M1050 314 C1116 314 1116 254 1178 254"/>
  <path class="edge" d="M1310 254 C1368 254 1350 362 1288 388"/>

  <g transform="translate(406 276)">
    <rect width="136" height="88" rx="16" class="panel" filter="url(#shadow)"/>
    <text x="20" y="32" class="h ink">触发器</text><text x="20" y="58" class="s muted">输入: 对话</text>
    <circle cx="136" cy="44" r="6" class="blue"/>
  </g>
  <g transform="translate(650 206)">
    <rect width="160" height="98" rx="16" class="panel" filter="url(#shadow)"/>
    <text x="20" y="32" class="h ink">规划Agent</text><text x="20" y="58" class="s muted">目标分解 · 证据</text>
    <rect x="20" y="70" width="72" height="20" rx="6" fill="#ecfdf5"/><text x="32" y="84" class="s green">completed</text>
    <circle cx="0" cy="49" r="6" class="blue"/><circle cx="160" cy="49" r="6" class="blue"/>
  </g>
  <g transform="translate(914 154)">
    <rect width="166" height="96" rx="16" class="panel" filter="url(#shadow)"/>
    <text x="18" y="31" class="h ink">讨论Agent A</text><text x="18" y="56" class="s muted">斯多葛视角</text>
    <rect x="18" y="68" width="92" height="20" rx="6" fill="#eff6ff"/><text x="30" y="82" class="s blue">persona.reason</text>
    <circle cx="0" cy="48" r="6" class="blue"/><circle cx="166" cy="48" r="6" class="blue"/>
  </g>
  <g transform="translate(914 272)">
    <rect width="166" height="96" rx="16" class="panel" filter="url(#shadow)"/>
    <text x="18" y="31" class="h ink">讨论Agent B</text><text x="18" y="56" class="s muted">苏格拉底追问</text>
    <rect x="18" y="68" width="96" height="20" rx="6" fill="#eff6ff"/><text x="30" y="82" class="s blue">persona.question</text>
    <circle cx="0" cy="48" r="6" class="blue"/><circle cx="166" cy="48" r="6" class="blue"/>
  </g>
  <g transform="translate(1178 206)">
    <rect width="176" height="106" rx="16" fill="#ffffff" stroke="#2563eb" stroke-width="2" filter="url(#shadow)"/>
    <text x="18" y="33" class="h ink">总结Agent</text><text x="18" y="58" class="s muted">归纳冲突与共识</text>
    <rect x="18" y="72" width="70" height="22" rx="6" fill="#ecfdf5"/><text x="30" y="87" class="s green">selected</text>
    <circle cx="0" cy="53" r="6" class="blue"/><circle cx="176" cy="53" r="6" class="blue"/>
  </g>
  <g transform="translate(1180 376)">
    <rect width="172" height="90" rx="16" class="panel" filter="url(#shadow)"/>
    <text x="18" y="32" class="h ink">质检Agent</text><text x="18" y="58" class="s muted">检查输出质量</text>
    <rect x="18" y="66" width="78" height="18" rx="6" fill="#fff7ed"/><text x="30" y="79" class="s amber">awaiting</text>
  </g>

  <rect x="362" y="690" width="714" height="158" rx="18" class="panel"/>
  <text x="386" y="724" class="h ink">Chat 工作台</text>
  <text x="386" y="752" class="t muted">独立会话历史 · 自然语言目标 · 生成提案但不跳过确认</text>
  <rect x="386" y="774" width="438" height="46" rx="12" fill="#f8fafc" stroke="#dbe3ee"/>
  <text x="408" y="803" class="t ink">我想做一个多 Agent 讨论工作流，执行三轮讨论...</text>
  <rect x="842" y="774" width="88" height="46" rx="12" fill="#2563eb"/><text x="870" y="803" class="t" fill="#fff">发送</text>
  <rect x="944" y="774" width="104" height="46" rx="12" fill="#f8fafc" stroke="#dbe3ee"/><text x="966" y="803" class="t muted">查看提案</text>

  <rect x="1100" y="84" width="318" height="796" fill="#ffffff"/>
  <line x1="1100" y1="84" x2="1100" y2="880" stroke="#dde5f0"/>
  <text x="1126" y="132" class="h ink">右侧检查器</text>
  <text x="1126" y="160" class="t muted">选中：总结Agent</text>
  <rect x="1126" y="186" width="74" height="30" rx="8" fill="#eff6ff"/><text x="1144" y="206" class="s blue">概览</text>
  <rect x="1208" y="186" width="74" height="30" rx="8" class="chip"/><text x="1226" y="206" class="s muted">工具</text>
  <rect x="1290" y="186" width="74" height="30" rx="8" class="chip"/><text x="1308" y="206" class="s muted">证据</text>
  <text x="1126" y="256" class="s muted">角色</text><text x="1126" y="284" class="t ink">Summary Agent</text>
  <text x="1126" y="332" class="s muted">目标</text><text x="1126" y="360" class="t ink">整合讨论、输出共识和分歧</text>
  <text x="1126" y="408" class="s muted">工具 / 技能 / MCP</text>
  <rect x="1126" y="426" width="248" height="34" rx="9" class="chip"/><text x="1142" y="448" class="s ink">dialogue.summarize</text>
  <rect x="1126" y="470" width="248" height="34" rx="9" class="chip"/><text x="1142" y="492" class="s ink">evidence.link</text>
  <text x="1126" y="548" class="s muted">质量</text>
  <rect x="1126" y="568" width="248" height="50" rx="12" fill="#ecfdf5" stroke="#bbf7d0"/>
  <text x="1144" y="599" class="t green">覆盖三轮讨论 · PASS</text>
  <text x="1126" y="666" class="s muted">证据引用</text>
  <rect x="1126" y="686" width="248" height="42" rx="10" fill="#f8fafc" stroke="#dbe3ee"/>
  <text x="1144" y="712" class="mono muted">evidence://v12/demo/ref</text>
  <text x="1126" y="790" class="s muted">边界</text>
  <text x="1126" y="818" class="t muted">仅设计原型，不作为运行证据。</text>
</svg>

